<?xml version="1.0" encoding="UTF-8" standalone="no"?>
<svg width="76px" height="76px" viewBox="0 0 76 76" version="1.1" xmlns="http://www.w3.org/2000/svg" xmlns:xlink="http://www.w3.org/1999/xlink" xmlns:sketch="http://www.bohemiancoding.com/sketch/ns">
    <!-- Generator: Sketch 3.2.2 (9983) - http://www.bohemiancoding.com/sketch -->
    <title>Artboard 2</title>
    <desc>Created with Sketch.</desc>
    <defs></defs>
    <g id="JOURNAL" stroke="none" stroke-width="1" fill="none" fill-rule="evenodd" sketch:type="MSPage">
        <g id="Artboard-2" sketch:type="MSArtboardGroup" stroke="#4BFF87" stroke-width="2">
            <path d="M60,25.1431277 C58.454766,25.8459955 56.7939455,26.3206007 55.051088,26.5342986 C56.8301887,25.4409488 58.1966555,23.7095187 58.8397276,21.646116 C57.174744,22.6586071 55.3307484,23.3938685 53.3677379,23.7901262 C51.796301,22.0727584 49.5568137,21 47.078317,21 C42.3196819,21 38.4614945,24.9560479 38.4614945,29.8356926 C38.4614945,30.5282647 38.5376542,31.2025054 38.6845861,31.8493747 C31.5233692,31.4809907 25.174196,27.9631365 20.924435,22.6174244 C20.1826737,23.9222121 19.7575507,25.4399443 19.7575507,27.0591266 C19.7575507,30.1247247 21.2787858,32.829221 23.5907596,34.4134984 C22.1782541,34.3675446 20.8497446,33.9700314 19.687758,33.3085974 C19.6867785,33.34526 19.6867785,33.3824249 19.6867785,33.4195898 C19.6867785,37.700579 22.6570073,41.2716693 26.5989458,42.0837716 C25.8760408,42.2856671 25.1146885,42.393395 24.3288476,42.393395 C23.773445,42.393395 23.233715,42.3378988 22.7076988,42.2349421 C23.8043007,45.7452629 26.9863563,48.2995932 30.7571192,48.3709095 C27.8079506,50.7409222 24.092777,52.1534377 20.0555776,52.1534377 C19.3600998,52.1534377 18.6741726,52.1115017 18,52.0298897 C21.8133731,54.5370106 26.3425496,56 31.20869,56 C47.0579915,56 55.7250157,42.5365299 55.7250157,30.8599861 C55.7250157,30.4770374 55.7166896,30.0958466 55.7000373,29.7166646 C57.384122,28.4711398 58.8446253,26.9152383 60,25.1431277 L60,25.1431277 L60,25.1431277 Z" id="path5-3" sketch:type="MSShapeGroup"></path>
        </g>
    </g>
</svg>