<?xml version="1.0" encoding="UTF-8" standalone="no"?>
<svg width="131px" height="132px" viewBox="0 0 131 132" version="1.1" xmlns="http://www.w3.org/2000/svg" xmlns:xlink="http://www.w3.org/1999/xlink">
    <!-- Generator: Sketch 3.8.3 (29802) - http://www.bohemiancoding.com/sketch -->
    <title>icon-360</title>
    <desc>Created with Sketch.</desc>
    <defs></defs>
    <g id="Page-1" stroke="none" stroke-width="1" fill="none" fill-rule="evenodd">
        <g id="map2" transform="translate(-581.000000, -265.000000)" fill="#FFFFFF">
            <g id="icon-360" transform="translate(581.000000, 265.000000)">
                <g id="Page-1">
                    <path d="M95.8940598,48.6502408 C94.2547931,48.4153256 92.5797931,48.2050205 90.8601264,48.0126137 C89.9355264,47.898512 89.1158931,48.5719357 89.0109264,49.4892239 C88.9059598,50.406512 89.5692598,51.2365459 90.4849264,51.3416984 C92.1688598,51.5341052 93.8170598,51.7444103 95.4228264,51.9703764 C95.5009931,51.9793256 95.5791598,51.9882747 95.6595598,51.9882747 C96.4791931,51.9882747 97.1938598,51.3864442 97.3166931,50.5474611 C97.4462264,49.630173 96.8097264,48.7822408 95.8940598,48.6502408 L95.8940598,48.6502408 Z" id="Fill-1"></path>
                    <path d="M82.9990123,56.7887666 L83.077179,56.7887666 C84.001779,56.7462582 84.7164457,55.9676819 84.6740123,55.0414446 C84.5936123,53.3276819 84.5065123,51.6430039 84.3948457,49.9806988 C84.3859123,49.8061904 84.323379,49.6495802 84.263079,49.49297 C84.3077457,49.36097 84.3591123,49.2379192 84.3680457,49.0992073 C84.437279,48.17297 83.740479,47.3675463 82.815879,47.3071395 C81.1565123,47.1840887 79.465879,47.0878853 77.7551457,47.0006311 C76.866279,46.9760209 76.0444123,47.6740548 76.001979,48.6002921 C75.9573123,49.5265294 76.6742123,50.3140548 77.5988123,50.3565633 C78.7668457,50.4102582 79.9192457,50.4885633 81.0694123,50.5668683 C81.1654457,52.0882243 81.2525457,53.6341904 81.3240123,55.1980548 C81.3664457,56.0907327 82.1079123,56.7887666 82.9990123,56.7887666 L82.9990123,56.7887666 Z" id="Fill-2"></path>
                    <path d="M37.6631942,51.9573912 C37.7324275,51.9573912 37.8105942,51.9484421 37.8909942,51.9394929 C39.5034608,51.7202387 41.1538942,51.5211201 42.8355942,51.3443743 C43.7624275,51.2481709 44.4234942,50.418137 44.3274608,49.5008489 C44.2314275,48.5835607 43.4296608,47.9280353 42.4871942,48.0063404 C40.7697608,48.189798 39.0947608,48.391154 37.4532608,48.6104082 C36.5375942,48.733459 35.8921608,49.579154 36.0149942,50.4986794 C36.1199608,51.3443743 36.8435608,51.9573912 37.6631942,51.9573912 L37.6631942,51.9573912 Z" id="Fill-3"></path>
                    <path d="M68.7268,47.0178983 C67.6972333,47.0089492 66.6498,47 65.6113,47 L63.6660667,47.0089492 C62.7414667,47.0178983 62,47.7696271 62,48.6958644 C62.0089333,49.6131525 62.7593333,50.3648814 63.675,50.3648814 L63.6839333,50.3648814 L65.6023667,50.3559322 C66.6319333,50.3559322 67.6615,50.3648814 68.6821333,50.3738305 L68.7,50.3738305 C69.6156667,50.3738305 70.3660667,49.64 70.375,48.7137627 C70.3928667,47.7964746 69.6514,47.0357966 68.7268,47.0178983 L68.7268,47.0178983 Z" id="Fill-4"></path>
                    <path d="M11.6804174,59.1489425 C11.9059841,59.1489425 12.1337841,59.1064341 12.3526507,59.0102307 C13.7127507,58.4061629 15.2492841,57.8199934 16.8974841,57.2696205 C17.7774174,56.9720612 18.2486507,56.0212137 17.9516174,55.1464341 C17.6568174,54.2627053 16.7054174,53.7928748 15.8321841,54.0881968 C14.0790174,54.6743663 12.4576174,55.3030442 10.9992507,55.9406714 C10.1528174,56.3165358 9.76868406,57.3054171 10.1438841,58.1533493 C10.4141174,58.7730781 11.0349841,59.1489425 11.6804174,59.1489425 L11.6804174,59.1489425 Z" id="Fill-5"></path>
                    <path d="M23.6666318,54.3927517 C23.7872318,54.3927517 23.9189984,54.3748534 24.0418318,54.3480059 C25.5939984,53.9900398 27.2176318,53.6477347 28.9015651,53.3255652 C29.8082984,53.1510567 30.4090651,52.2762771 30.2348651,51.3679381 C30.0606651,50.4595991 29.1963651,49.8555313 28.2806984,50.0300398 C26.5543318,50.3544466 24.8882651,50.7124127 23.3003651,51.0793279 C22.4003318,51.289633 21.8352984,52.1890228 22.0429984,53.0884127 C22.2171984,53.8669889 22.9072984,54.3927517 23.6666318,54.3927517 L23.6666318,54.3927517 Z" id="Fill-6"></path>
                    <path d="M130.9448,65.5816271 C130.9448,29.4181017 101.572,0 65.4724,0 C29.3728,0 0,29.4248136 0,65.5905763 C0,101.745153 29.3728,131.169966 65.4724,131.169966 C101.572,131.169966 130.9448,101.745153 130.9448,65.5816271 L130.9448,65.5816271 L130.9448,65.5816271 L130.9448,65.5816271 L130.9448,65.5816271 Z M4.98033333,60.0130169 C4.61406667,59.6461017 4.12496667,59.5073898 3.6448,59.5588475 C6.4722,30.2212881 29.7212,6.77227119 58.9376667,3.70494915 C51.0071,13.300678 46.7861,40.0787797 46.7861,65.5905763 C46.7861,70.4656271 46.9424333,75.3943729 47.2484,80.2358644 C20.6739667,78.112678 3.35,71.575322 3.35,65.5905763 C3.35,64.5658983 3.8994,63.492 4.98926667,62.3912542 C5.64363333,61.7267797 5.64363333,60.6685424 4.98033333,60.0130169 L4.98033333,60.0130169 Z M3.6984,72.1256949 C11.0170333,78.1999322 28.3521667,82.0972881 47.4918333,83.6007458 C48.9926333,102.776542 52.8831,120.131186 58.9466,127.473966 C29.8954,124.413356 6.74243333,101.228339 3.6984,72.1256949 L3.6984,72.1256949 Z M70.5420667,127.585831 C70.4795333,127.411322 70.4103,127.245763 70.2964,127.098102 C69.7291333,126.370983 68.675,126.24122 67.9491667,126.818441 C67.0871,127.489627 66.2741667,127.814034 65.4724,127.814034 C59.496,127.814034 52.9612667,110.457153 50.8507667,83.8378983 C55.6837,84.1421695 60.6037333,84.3010169 65.4724,84.3010169 C70.8547333,84.3010169 76.2996,84.1086102 81.6283333,83.7327458 C81.6819333,83.7416949 81.7333,83.7752542 81.7869,83.7752542 L81.9075,83.7752542 C82.1085,83.7752542 82.2916333,83.7327458 82.4658333,83.672339 C101.998567,82.2292881 119.804933,78.3050847 127.2464,72.1256949 C124.148767,101.709356 100.2722,125.174034 70.5420667,127.585831 L70.5420667,127.585831 Z M83.6964,80.2358644 C83.7589333,79.2134237 83.8281667,78.1999322 83.8795333,77.1595932 C83.9242,76.2333559 83.2073,75.4480678 82.2827,75.403322 C81.4362667,75.3764746 80.5742,76.0767458 80.5295333,77.0029831 C80.4781667,78.1820339 80.4,79.3275254 80.3196,80.4819661 C75.6184333,80.7795254 70.6626667,80.9540339 65.4724,80.9540339 C60.2821333,80.9540339 55.3174333,80.7862373 50.6073333,80.4819661 C50.3103,75.7612881 50.1361,70.7989831 50.1361,65.5905763 C50.1361,60.3888814 50.3013667,55.4176271 50.6073333,50.7058983 C52.1327,50.6096949 53.6692333,50.5224407 55.2392667,50.4530847 C56.1638667,50.408339 56.8785333,49.632 56.8450333,48.7057627 C56.8003667,47.7795254 56.0321,47.0971525 55.0985667,47.0971525 C53.6603,47.1575593 52.2555333,47.2358644 50.8507667,47.3231186 C52.9702,20.7128136 59.5049333,3.3559322 65.4724,3.3559322 C66.4930333,3.3559322 67.5672667,3.90630508 68.6660667,4.99810169 C68.9876667,5.32250847 69.4164667,5.4880678 69.8430333,5.4880678 C70.2696,5.4880678 70.7073333,5.32250847 71.0289333,4.99138983 C71.3952,4.62447458 71.5359,4.13450847 71.4823,3.65349153 C101.2571,6.53735593 124.9349,30.5524068 127.3603,60.5119322 C127.1861,60.572339 127.020833,60.6439322 126.8712,60.7557966 C126.1476,61.3330169 126.015833,62.3823051 126.592033,63.1161356 C127.264267,63.9730169 127.585867,64.7762034 127.585867,65.5905763 C127.585867,71.5663729 110.2619,78.112678 83.6964,80.2358644 L83.6964,80.2358644 Z" id="Fill-7"></path>
                    <path d="M108.987767,51.1339715 C107.399867,50.7491579 105.7338,50.3822426 104.0052,50.0332257 C103.0806,49.8497681 102.218534,50.4448867 102.033167,51.3532257 C101.850034,52.2615647 102.4441,53.1452935 103.350834,53.3287511 C105.034767,53.6598698 106.649467,54.0178359 108.1927,54.3937003 C108.324467,54.4294969 108.462934,54.438446 108.5947,54.438446 C109.3451,54.438446 110.0352,53.9216325 110.218334,53.1520054 C110.434967,52.2615647 109.885567,51.3532257 108.987767,51.1339715 L108.987767,51.1339715 Z" id="Fill-8"></path>
                    <path d="M122.038881,56.0646054 C120.607314,55.3822325 118.985914,54.7199952 117.232747,54.0980291 C116.359514,53.7848088 115.399181,54.2479274 115.095447,55.1204698 C114.789481,55.9952495 115.242847,56.9572834 116.116081,57.2615546 C117.764281,57.847724 119.274014,58.4674529 120.607314,59.0983681 C120.844047,59.2102325 121.087481,59.2639274 121.324214,59.2639274 C121.951781,59.2639274 122.552547,58.9149105 122.840647,58.3018935 C123.233714,57.4629105 122.876381,56.4673173 122.038881,56.0646054 L122.038881,56.0646054 Z" id="Fill-9"></path>
                    <path d="M79.0144915,36.8938392 C79.2333582,38.5113985 79.4254248,40.1625172 79.6085582,41.8494324 C79.7045915,42.7152629 80.4281915,43.3528901 81.2746248,43.3528901 C81.3371582,43.3528901 81.3974582,43.3528901 81.4577582,43.3439409 C82.3734248,43.2477375 83.0456582,42.4177036 82.9406915,41.5004155 C82.7575582,39.7777036 82.5565582,38.0997375 82.3399248,36.457568 C82.2170915,35.5402799 81.3795915,34.8937036 80.4549915,35.0145172 C79.5393248,35.1286189 78.8938915,35.9676019 79.0144915,36.8938392 L79.0144915,36.8938392 Z" id="Fill-10"></path>
                    <path d="M76.1338484,115.094499 C75.2628484,114.790228 74.302515,115.244397 73.9965484,116.11694 C73.4136484,117.770296 72.7927817,119.280465 72.165215,120.618363 C71.763215,121.457347 72.1205484,122.45294 72.9580484,122.855652 C73.1858484,122.969753 73.438215,123.021211 73.6749484,123.021211 C74.302515,123.021211 74.905515,122.672194 75.1913817,122.061414 C75.8725484,120.618363 76.5358484,119.000804 77.1544817,117.244533 C77.4693817,116.363041 77.0070817,115.409957 76.1338484,115.094499 L76.1338484,115.094499 Z" id="Fill-11"></path>
                    <path d="M76.9986174,16.9746473 C77.8807841,16.677088 78.3520174,15.7329524 78.0549841,14.8514609 C77.4698507,13.1019016 76.8512174,11.4686812 76.2057841,10.0010202 C75.8305841,9.153088 74.8456841,8.76827444 73.9992507,9.14413885 C73.1528174,9.52000326 72.7686841,10.5066473 73.1438841,11.3545795 C73.7446507,12.7282744 74.3297841,14.2563422 74.8791841,15.9074609 C75.1159174,16.6077321 75.7702841,17.0529524 76.4670841,17.0529524 C76.6412841,17.0619016 76.8244174,17.0350541 76.9986174,16.9746473 L76.9986174,16.9746473 Z" id="Fill-12"></path>
                    <path d="M77.0409356,24.059042 C77.3982689,25.6161945 77.7377356,27.2404657 78.0615689,28.9184318 C78.2089689,29.7238555 78.9147022,30.2831775 79.7008356,30.2831775 C79.8058022,30.2831775 79.9107689,30.2742284 80.0157356,30.2563301 C80.9224689,30.0818216 81.5232356,29.207042 81.3490356,28.298703 C81.0274356,26.567042 80.6790356,24.898025 80.3038356,23.298364 C80.0939022,22.3989742 79.1938689,21.8396521 78.2960689,22.0410081 C77.3982689,22.2602623 76.8399356,23.1596521 77.0409356,24.059042 L77.0409356,24.059042 Z" id="Fill-13"></path>
                    <path d="M80.0845358,102.033226 C79.1688692,101.849768 78.2956358,102.444887 78.1125025,103.353226 C77.7819692,105.031192 77.4224025,106.655463 77.0472025,108.203666 C76.8305692,109.103056 77.3799692,110.011395 78.2777692,110.230649 C78.4095358,110.266446 78.5480025,110.275395 78.6797692,110.275395 C79.4301692,110.275395 80.1180358,109.758582 80.3011692,108.997904 C80.6853025,107.407192 81.0515692,105.738175 81.4022025,104.008751 C81.5764025,103.100412 80.9823358,102.216683 80.0845358,102.033226 L80.0845358,102.033226 Z" id="Fill-14"></path>
                    <path d="M81.4957345,89.0093664 C80.5957012,88.913163 79.7492678,89.5686884 79.6443012,90.4859765 C79.4544678,92.1728918 79.2445345,93.8240104 79.0167345,95.4326206 C78.8872012,96.3499087 79.5237012,97.1978409 80.4393678,97.3276037 C80.5175345,97.3365528 80.5957012,97.345502 80.6738678,97.345502 C81.4957345,97.345502 82.2104012,96.7436715 82.3332345,95.9046884 C82.5588012,94.2602816 82.7776678,92.5823155 82.9697345,90.8618409 C83.0747012,89.9445528 82.4114012,89.1122816 81.4957345,89.0093664 L81.4957345,89.0093664 Z" id="Fill-15"></path>
                    <path d="M82.6839789,62 L82.6750456,62 C81.7504456,62.0089492 81.0089789,62.760678 81.0089789,63.6869153 L81.0179123,65.6109831 C81.0179123,66.6423729 81.0089789,67.6715254 81.0000456,68.6939661 C80.9933456,69.6224407 81.7258789,70.3808814 82.6594123,70.3898305 L82.6750456,70.3898305 C83.5929456,70.3898305 84.3433456,69.656 84.3500456,68.7297627 C84.3589789,67.6983729 84.3679123,66.6490847 84.3679123,65.6109831 L84.3589789,63.6600678 C84.3589789,62.7427797 83.6085789,62 82.6839789,62 L82.6839789,62 Z" id="Fill-16"></path>
                </g>
            </g>
        </g>
    </g>
</svg>