<?xml version="1.0" encoding="UTF-8" standalone="no"?>
<svg width="1440px" height="401px" viewBox="0 0 1440 401" version="1.1" xmlns="http://www.w3.org/2000/svg" xmlns:xlink="http://www.w3.org/1999/xlink" xmlns:sketch="http://www.bohemiancoding.com/sketch/ns">
    <!-- Generator: Sketch 3.2.2 (9983) - http://www.bohemiancoding.com/sketch -->
    <title>Group</title>
    <desc>Created with Sketch.</desc>
    <defs></defs>
    <g id="ABOUT" stroke="none" stroke-width="1" fill="none" fill-rule="evenodd" sketch:type="MSPage">
        <g id="ABOUTDESKTOP" sketch:type="MSArtboardGroup" transform="translate(0.000000, -1173.000000)">
            <g id="Group" sketch:type="MSLayerGroup" transform="translate(1.000000, 1174.000000)">
                <g id="Path-3-+-Oval-3" transform="translate(678.000000, 296.000000)" fill="#4BFF87" sketch:type="MSShapeGroup">
                    <path d="M30.1067588,0.955350498 C12.621747,1.26293636 -0.00430156985,15.2924374 0.303933063,33.0891153 L0.308667352,33.362461 C0.387739762,37.9278994 2.43997836,43.2381777 6.11543002,49.1961274 C8.60886118,53.2380082 11.8002341,57.4925736 15.5272332,61.8675713 C18.7982608,65.7073196 22.2984162,69.4283 25.7984219,72.8906435 C27.0235715,74.1026097 28.1617951,75.1962551 29.1843229,76.1538411 C29.5431854,76.4899118 29.8622821,76.7852597 30.138013,77.0376607 C30.3050277,77.1905441 30.4214517,77.2960079 30.4836832,77.351825 L31.7189863,78.4598005 L32.9156462,77.3095561 C32.9742974,77.2531798 33.0839132,77.1467718 33.2411062,76.9925824 C33.5005479,76.738098 33.8007717,76.4403509 34.1383919,76.1015882 C35.1003025,75.1364226 36.171011,74.0343042 37.3234581,72.8131567 C40.615569,69.3247946 43.907749,65.5771984 46.9842837,61.7118006 C50.4592813,57.3457688 53.4393682,53.1006064 55.7750983,49.0681393 C59.4042559,42.8026644 61.3653112,37.2606024 61.283954,32.5632493 L61.2792197,32.2899036 C60.9710314,14.4958979 47.5937614,0.647729612 30.1067588,0.955350498 Z M57.6948775,32.6263862 C57.7624241,36.5263544 56.0027952,41.4991729 52.6750269,47.2443214 C50.4378415,51.1066583 47.5564553,55.2112205 44.1841752,59.4481967 C41.1762551,63.2273863 37.9493765,66.9006478 34.7224286,70.3199624 C33.5932051,71.5165018 32.5452196,72.5952307 31.605738,73.5378914 C31.277871,73.8668679 30.9873051,74.1550368 30.7374453,74.4001224 C30.5890574,74.5456749 30.488162,74.6436177 30.4381622,74.691678 L32.8701252,74.6494091 C32.8168263,74.601604 32.7094102,74.5043001 32.5514957,74.3597469 C32.285678,74.1164204 31.9765782,73.8303253 31.6278171,73.5037144 C30.6285632,72.5679243 29.5139444,71.4969591 28.312956,70.3088941 C24.8811388,66.9140053 21.4494713,63.2658338 18.2507975,59.5110192 C14.6345766,55.2660603 11.5498867,51.1537188 9.16391379,47.2860291 C5.79994063,41.8329896 3.96323141,37.0804053 3.8977439,33.2993242 L3.89300961,33.0259784 C3.61852799,17.1781128 14.7185516,4.84426254 30.1694064,4.57246035 C45.6229715,4.30061047 57.4157188,16.5084786 57.6901432,32.3530405 L57.6948775,32.6263862 Z M43.7619161,35.4827398 C45.2379426,28.4843425 40.8051458,21.6051187 33.8609874,20.1175635 C26.916829,18.6300082 20.0909206,23.0974284 18.6148942,30.0958257 C17.1388677,37.094223 21.5716645,43.9734467 28.5158229,45.461002 C35.4599813,46.9485573 42.2858897,42.4811371 43.7619161,35.4827398 Z M22.1260755,30.8479796 C23.1899182,25.8039006 28.1096763,22.5840176 33.1146628,23.6561697 C38.1196492,24.7283218 41.3145775,29.6865068 40.2507347,34.7305858 C39.186892,39.7746649 34.267134,42.9945478 29.2621475,41.9223957 C24.2571611,40.8502436 21.0622328,35.8920587 22.1260755,30.8479796 Z" id="Path-3"></path>
                </g>
                <path d="M0.116421024,0 L46.623784,51.0210441 L196.685284,104.39358 L255.325333,121.562988 L299.774533,203.647141 L335.238255,234.864333 L358.905508,289.855112 L427.635856,341.817463 L493.154565,335.811032 L601.930227,394.875202 L661.849572,398.878556 L777.817654,351.700931 L816.125099,321.627752 L899.081013,298.600058 L967.012839,320.68854 L1004.75084,325.032456 L1048.67807,314.936751 L1120.30397,286.895838 L1215.94536,272.476892 L1260.96519,268.347258 L1309.72673,300.183223 L1331.91905,301.021556 L1373.30989,274.347163 L1395.06214,261.249625 L1428.24115,268.302145 L1439.08692,274.392275" id="Path-32" stroke="#686D9D" stroke-width="2" stroke-dasharray="5" sketch:type="MSShapeGroup"></path>
                <circle id="Oval-3" fill="#686D9D" sketch:type="MSShapeGroup" cx="252" cy="120" r="7"></circle>
                <circle id="Oval-3" fill="#686D9D" sketch:type="MSShapeGroup" cx="497" cy="336" r="7"></circle>
                <circle id="Oval-3" fill="#686D9D" sketch:type="MSShapeGroup" cx="1267" cy="271" r="7"></circle>
            </g>
        </g>
    </g>
</svg>