<?xml version="1.0" encoding="UTF-8" standalone="no"?>
<svg width="1440px" height="402px" viewBox="0 0 1440 402" version="1.1" xmlns="http://www.w3.org/2000/svg" xmlns:xlink="http://www.w3.org/1999/xlink" xmlns:sketch="http://www.bohemiancoding.com/sketch/ns">
    <!-- Generator: Sketch 3.2.2 (9983) - http://www.bohemiancoding.com/sketch -->
    <title>Group</title>
    <desc>Created with Sketch.</desc>
    <defs></defs>
    <g id="ABOUT" stroke="none" stroke-width="1" fill="none" fill-rule="evenodd" sketch:type="MSPage">
        <g id="ABOUTDESKTOP" sketch:type="MSArtboardGroup" transform="translate(0.000000, -1173.000000)">
            <g id="Group" sketch:type="MSLayerGroup" transform="translate(1.000000, 1174.000000)">
                <g id="Path-3-+-Oval-3" transform="translate(677.000000, 267.000000)" fill="#4BFF87" sketch:type="MSShapeGroup">
                    <path d="M37.8303717,0.967559485 C15.6499799,1.35513374 -0.366635151,19.0330376 0.0243720144,41.4577811 L0.0303776371,41.802211 C0.130683948,47.5549017 2.7340254,54.2461296 7.39647336,61.7534574 C10.5594841,66.8464383 14.60786,72.2074128 19.3356978,77.7201384 C23.4851187,82.5584217 27.9251969,87.2470513 32.365085,91.6097849 C33.9192332,93.1369257 35.3631124,94.514976 36.6602272,95.7215843 C37.1154576,96.145051 37.5202437,96.5172048 37.8700187,96.8352432 C38.0818831,97.0278842 38.2295713,97.1607741 38.3085144,97.2311066 L39.8755425,98.6272135 L41.3935503,97.1778456 C41.4679516,97.1068085 41.6070034,96.9727289 41.8064086,96.7784422 C42.1355201,96.4577786 42.5163652,96.0826017 42.9446491,95.655743 C44.1648686,94.4395839 45.5231025,93.0508572 46.9850247,91.5121476 C51.1611905,87.1166292 55.3374441,82.3944622 59.2401435,77.5238591 C63.648308,72.0224311 67.4286598,66.6733049 70.3916208,61.5921858 C74.9953429,53.6973602 77.4830149,46.7140727 77.3798103,40.7951624 L77.3738047,40.4507326 C76.9828562,18.0293563 60.0132887,0.579941105 37.8303717,0.967559485 Z M72.8269324,40.8747182 C72.9126178,45.7888819 70.6804628,52.0548928 66.4590642,59.29408 C63.6211108,64.1608261 59.9659646,69.3327888 55.6881011,74.6716001 C51.8724419,79.4335763 47.7790256,84.0620776 43.6855214,88.3705926 C42.2530592,89.8782947 40.9236503,91.2375494 39.7318828,92.4253511 C39.3159712,92.8398787 38.9473775,93.2029865 38.630421,93.5118072 C38.4421854,93.695211 38.3141958,93.8186239 38.2507693,93.8791825 L41.3358053,93.8259215 C41.2681937,93.7656845 41.1319324,93.6430765 40.9316119,93.460932 C40.5944121,93.1543278 40.2023075,92.7938332 39.759891,92.3822863 C38.4923001,91.2031419 37.0783643,89.8536699 35.5548656,88.3566459 C31.2014771,84.0789088 26.8482785,79.4820221 22.7906411,74.7507597 C18.2033296,69.4018898 14.290285,64.2201249 11.2635891,59.3466338 C6.99626327,52.4755193 4.66632889,46.4870149 4.58325553,41.7226552 L4.57724991,41.3782253 C4.2290597,21.409087 18.3098549,5.86779173 37.9098424,5.52530677 C57.513268,5.18276174 72.4728092,20.5653131 72.8209268,40.5302883 L72.8269324,40.8747182 Z M55.1524496,44.473873 C57.0248444,35.6555269 51.4016758,26.9873458 42.5927511,25.1129484 C33.7838264,23.2385511 25.1249061,28.8677338 23.2525113,37.6860798 C21.3801166,46.5044259 27.0032851,55.172607 35.8122099,57.0470044 C44.6211346,58.9214017 53.2800549,53.292219 55.1524496,44.473873 Z M27.7065763,38.6338331 C29.0561006,32.2780302 35.2969978,28.2208095 41.6460103,29.5717771 C47.9950229,30.9227447 52.047909,37.1703167 50.6983847,43.5261197 C49.3488604,49.8819226 43.1079632,53.9391433 36.7589506,52.5881757 C30.409938,51.2372081 26.357052,44.9896361 27.7065763,38.6338331 Z" id="Path-3"></path>
                </g>
                <path d="M0.116421024,0 L46.623784,51.0210441 L196.685284,104.39358 L255.325333,121.562988 L299.774533,203.647141 L335.238255,234.864333 L358.905508,289.855112 L427.635856,341.817463 L493.154565,335.811032 L601.930227,394.875202 L661.849572,398.878556 L777.817654,351.700931 L816.125099,321.627752 L899.081013,298.600058 L967.012839,320.68854 L1004.75084,325.032456 L1048.67807,314.936751 L1120.30397,286.895838 L1215.94536,272.476892 L1260.96519,268.347258 L1309.72673,300.183223 L1331.91905,301.021556 L1373.30989,274.347163 L1395.06214,261.249625 L1428.24115,268.302145 L1439.08692,274.392275" id="Path-32" stroke="#686D9D" stroke-width="3" stroke-dasharray="10" sketch:type="MSShapeGroup"></path>
                <circle id="Oval-3" fill="#686D9D" sketch:type="MSShapeGroup" cx="252" cy="120" r="7"></circle>
                <circle id="Oval-3" fill="#686D9D" sketch:type="MSShapeGroup" cx="497" cy="336" r="7"></circle>
                <circle id="Oval-3" fill="#686D9D" sketch:type="MSShapeGroup" cx="1267" cy="271" r="7"></circle>
            </g>
        </g>
    </g>
</svg>