<?xml version="1.0" encoding="utf-8"?>
<!-- Generator: Adobe Illustrator 18.1.1, SVG Export Plug-In . SVG Version: 6.00 Build 0)  -->
<!DOCTYPE svg PUBLIC "-//W3C//DTD SVG 1.1//EN" "http://www.w3.org/Graphics/SVG/1.1/DTD/svg11.dtd">
<svg version="1.1" id="Layer_1" xmlns:sketch="http://www.bohemiancoding.com/sketch/ns"
	 xmlns="http://www.w3.org/2000/svg" xmlns:xlink="http://www.w3.org/1999/xlink" x="0px" y="0px" viewBox="-622 343 35 35"
	 enable-background="new -622 343 35 35" xml:space="preserve">
<title>path5 2 copy</title>
<desc>Created with Sketch.</desc>
<g id="D1oa4R_1_">
	<g>
		<path fill="none" stroke="#4BFF87" stroke-linejoin="round" stroke-miterlimit="10" d="M-604.2,362.1
			C-604.2,362.1-604.3,362.1-604.2,362.1c-0.1-0.1-0.1-0.1-0.1-0.2c-0.7-2.7-1.4-5.4-2.2-8c0-0.1-0.1-0.2-0.2-0.2
			c-2.1,0-4.3,0-6.4,0c-0.1,0-0.2,0-0.3,0c0,0.7,0,1.4,0,2.2c0.2,0,0.4,0,0.6,0c0.5,0,0.7,0.3,0.7,0.7c0,1.6,0,3.3,0,4.9
			c0,1.3,0,2.6,0,3.8c0,0.4-0.3,0.7-0.7,0.7c-0.2,0-0.4,0-0.6,0c0,0.1,0,0.1,0,0.2c0,0.6,0,1.1,0,1.7c0,0.2,0,0.2,0.2,0.2
			c1.7,0,3.4,0,5.1,0c0.1,0,0.1,0,0.2,0c0-0.7,0-1.4,0-2.1c-0.5,0-0.9,0-1.3,0c0-3.2,0-9.5,0-9.5s2.3,8,3.2,11.3
			c0,0.1,0.1,0.2,0.3,0.2c0.7,0,1.4,0,2.1,0c0.2,0,0.2,0,0.3-0.2c0.3-1.1,0.6-2.3,0.9-3.4c0.7-2.6,2.3-7.9,2.3-7.9s0,6.3,0,9.5
			c-0.4,0-0.9,0-1.3,0c0,0.7,0,1.4,0,2.1c0.1,0,0.1,0,0.2,0c2,0,4.1,0,6.1,0c0.2,0,0.2-0.1,0.2-0.2c0-0.6,0-1.2,0-1.7
			c0,0,0-0.1,0-0.2c-0.2,0-0.4,0-0.6,0c-0.4,0-0.7-0.3-0.7-0.7c0-2.9,0-5.8,0-8.7c0-0.1,0-0.2,0-0.3c0-0.2,0.3-0.6,0.6-0.6
			c0.2,0,0.4,0,0.7,0c0-0.7,0-1.4,0-2.2c-0.1,0-0.1,0-0.2,0c-2.1,0-4.3,0-6.4,0c-0.2,0-0.3,0.1-0.3,0.2c-0.7,2.5-1.3,4.9-2,7.4
			C-604.1,361.5-604.1,361.8-604.2,362.1z"/>
	</g>
</g>
<rect x="-622" y="343" fill="none" width="35" height="35"/>
</svg>
