<?xml version="1.0" encoding="utf-8"?>
<!-- Generator: Adobe Illustrator 18.1.1, SVG Export Plug-In . SVG Version: 6.00 Build 0)  -->
<!DOCTYPE svg PUBLIC "-//W3C//DTD SVG 1.1//EN" "http://www.w3.org/Graphics/SVG/1.1/DTD/svg11.dtd">
<svg version="1.1" id="Layer_1" xmlns="http://www.w3.org/2000/svg" xmlns:xlink="http://www.w3.org/1999/xlink" x="0px" y="0px"
	 viewBox="13.1 267.4 514.8 151.2" enable-background="new 13.1 267.4 514.8 151.2" xml:space="preserve">
<path fill="#FBD42C" d="M13.1,267.4v151.2h105.5V267.4C118.6,267.4,13.1,267.4,13.1,267.4z M103.4,403.4h-75V282.6h75.1v120.8H103.4
	z"/>
<path fill="#FFFFFF" d="M181.6,320.1h-0.1c-8.4-13.5-16.9-25.5-25.5-37.5h-6.5v52.6h7.2v-37.8h0.1c8.5,13.6,17,25.6,25.6,37.8h6.5
	v-52.6h-7.2v37.5H181.6z M233.8,335.2L217,282.6h-7.5l-18.2,52.6h7.9l4.6-14.4h15.9l4.1,14.4H233.8z M205.9,314.4
	c2.1-6.9,4.2-13.2,6.1-21.4h0.1c2.1,8.1,4,14.5,6,21.4H205.9z M242.1,335.2h9v-45.6H265v-7.1h-36.8v7.1h13.9L242.1,335.2
	L242.1,335.2z M276.9,282.6h-9v52.6h9V282.6z M304.8,336.1c13.8,0,22.4-12.2,22.4-28c0-14.8-9.5-26.5-22.4-26.5
	c-12.9,0-22.4,11.8-22.4,26.5C282.4,323.9,291,336.1,304.8,336.1z M304.8,289.2c9,0,12.8,9.2,12.8,19c0,10.1-3.2,20.5-12.8,20.5
	c-9.4,0-12.8-10.4-12.8-20.5C292,298.5,295.8,289.2,304.8,289.2z M339.8,297.5L339.8,297.5c8.6,13.6,17.1,25.6,25.6,37.8h6.5v-52.6
	h-7.2v37.5h-0.1c-8.4-13.5-16.9-25.5-25.5-37.5h-6.5v52.6h7.2V297.5z M386.8,320.9h15.9l4.1,14.4h10.1l-16.8-52.6h-7.5l-18.2,52.6
	h7.9L386.8,320.9z M395.2,293h0.1c2.1,8.1,4,14.5,6,21.4h-12.2C391.2,307.5,393.4,301.1,395.2,293z M446.2,328.1h-17.9v-45.5h-9
	v52.6h26.9V328.1z M174.2,395.5c-1.9,1-3.9,1.2-6.4,1.2c-7.8,0-15.2-7.4-15.2-19.9c0-12,6.5-19.5,16.1-19.5c3.5,0,7.2,1.2,9.6,2.8
	l2.9-6.2c-3-2.2-7.9-4.1-12.8-4.1c-15.8,0-25.6,12.5-25.6,26.9c0,15.5,9.8,27.5,25.2,27.5c5.1,0,10.1-1.4,15-3.2v-21.8h-9v16.4
	H174.2z M200.5,379.2h14.8v-7.1h-14.8v-14.4h15v-7h-24.1v52.6h26.8v-7.1h-17.8v-17H200.5z M243.4,349.8c-12.9,0-22.4,11.8-22.4,26.5
	c0,15.8,8.6,28,22.4,28s22.4-12.2,22.4-28C265.6,361.5,256.1,349.8,243.4,349.8z M243.4,396.8c-9.4,0-12.8-10.4-12.8-20.5
	c0-9.8,3.8-19,12.8-19s12.8,9.2,12.8,19C256,386.4,252.8,396.8,243.4,396.8z M300,395.5c-1.9,1-3.9,1.2-6.4,1.2
	c-7.8,0-15.2-7.4-15.2-19.9c0-12,6.5-19.5,16.1-19.5c3.5,0,7.2,1.2,9.6,2.8l2.9-6.2c-3-2.2-7.9-4.1-12.8-4.1
	c-15.8,0-25.5,12.5-25.5,26.9c0,15.5,9.8,27.5,25.2,27.5c5.1,0,10.1-1.4,15-3.2v-21.8h-9V395.5z M347.6,365.9
	c0-10.2-6.2-15.2-16.4-15.2h-14.1v52.6h9v-19.9h4l8.5,19.9h10.2l-10.6-21.8C344.4,378.5,347.6,372.2,347.6,365.9z M330,376.8
	c-0.9,0.1-3,0.1-3.8,0.2v-19.2h4c5.4,0,8.4,3.1,8.4,8.5C338.6,373.4,334.4,376.5,330,376.8z M367.5,350.8l-18.2,52.6h7.9l4.6-14.4
	h15.8l4.1,14.4h10.1L375,350.8H367.5z M364,382.5c2.1-6.9,4.2-13.4,6.1-21.4h0.1c2.1,8.1,4,14.5,6,21.4H364z M457.8,370.9H439v-20.1
	h-9v52.6h9V378h18.8v25.4h9v-52.5h-9V370.9z M475.5,403.4h9v-52.6h-9V403.4z M516,396.8c-8.8,0-16.1-7.4-16.1-19.9
	c0-12,6.8-19.5,15.9-19.5c3.5,0,7.1,1.6,9.2,2.9l2.9-6.4c-3.1-2.1-7.5-4.1-12.1-4.1c-15.8,0-25.4,12.5-25.4,26.9
	c0,15.5,9.7,27.5,25.2,27.5c4.4,0,9.1-1.8,11.9-3.6L525,394C522.8,395.6,519.5,396.8,516,396.8z M408.8,350.8h-14v52.6h9v-19.9h4
	c10.8,0,17.2-8.8,17.2-17.6C425,355.6,418.8,350.8,408.8,350.8z M407.4,376.8c-0.9,0.1-3.1,0.1-3.8,0.2v-19.2h4
	c5.3,0,8.2,3.1,8.2,8.5C416,373.4,411.8,376.5,407.4,376.8z"/>
</svg>
