<?xml version="1.0" encoding="utf-8"?>
<!-- Generator: Adobe Illustrator 18.1.1, SVG Export Plug-In . SVG Version: 6.00 Build 0)  -->
<!DOCTYPE svg PUBLIC "-//W3C//DTD SVG 1.1//EN" "http://www.w3.org/Graphics/SVG/1.1/DTD/svg11.dtd">
<svg version="1.1" xmlns="http://www.w3.org/2000/svg" xmlns:xlink="http://www.w3.org/1999/xlink" x="0px" y="0px"
	 viewBox="0 0 432 144" enable-background="new 0 0 432 144" xml:space="preserve">
<path fill="#FBD42C" d="M10.5,12.3v121h84.4v-121H10.5z M82.7,121.1H22.7V24.5h60.1V121.1z"/>
<path fill="#FFFFFF" d="M145.3,54.5h-0.1c-6.7-10.8-13.5-20.4-20.4-30h-5.2v42.1h5.8V36.4h0.1c6.8,10.9,13.6,20.5,20.5,30.2h5.2
	V24.5h-5.8V54.5z M187,66.6l-13.4-42.1h-6L153,66.6h6.3l3.7-11.5h12.7l3.3,11.5H187z M164.7,49.9c1.7-5.5,3.4-10.6,4.9-17.1h0.1
	c1.7,6.5,3.2,11.6,4.8,17.1H164.7z M193.7,66.6h7.2V30.1H212v-5.7h-29.4v5.7h11.1V66.6z M221.5,24.5h-7.2v42.1h7.2V24.5z
	 M243.8,67.3c11,0,17.9-9.8,17.9-22.4c0-11.8-7.6-21.2-17.9-21.2c-10.3,0-17.9,9.4-17.9,21.2C225.9,57.5,232.8,67.3,243.8,67.3z
	 M243.8,29.8c7.2,0,10.2,7.4,10.2,15.2c0,8.1-2.6,16.4-10.2,16.4c-7.5,0-10.2-8.3-10.2-16.4C233.6,37.2,236.6,29.8,243.8,29.8z
	 M271.8,36.4L271.8,36.4c6.9,10.9,13.7,20.5,20.5,30.2h5.2V24.5h-5.8v30h-0.1c-6.7-10.8-13.5-20.4-20.4-30h-5.2v42.1h5.8V36.4z
	 M309.4,55.1h12.7l3.3,11.5h8.1l-13.4-42.1h-6l-14.6,42.1h6.3L309.4,55.1z M316.2,32.8h0.1c1.7,6.5,3.2,11.6,4.8,17.1h-9.8
	C313,44.4,314.7,39.3,316.2,32.8z M357,60.9h-14.3V24.5h-7.2v42.1H357V60.9z M139.4,114.8c-1.5,0.8-3.1,1-5.1,1
	c-6.2,0-12.2-5.9-12.2-15.9c0-9.6,5.2-15.6,12.9-15.6c2.8,0,5.8,1,7.7,2.2l2.3-5c-2.4-1.8-6.3-3.3-10.2-3.3
	c-12.6,0-20.5,10-20.5,21.5c0,12.4,7.8,22,20.2,22c4.1,0,8.1-1.1,12-2.6v-17.4h-7.2V114.8z M160.4,101.8h11.8v-5.7h-11.8V84.6h12V79
	h-19.3v42.1h21.4v-5.7h-14.2V101.8z M194.7,78.2c-10.3,0-17.9,9.4-17.9,21.2c0,12.6,6.9,22.4,17.9,22.4c11,0,17.9-9.8,17.9-22.4
	C212.5,87.6,204.9,78.2,194.7,78.2z M194.7,115.8c-7.5,0-10.2-8.3-10.2-16.4c0-7.8,3-15.2,10.2-15.2c7.2,0,10.2,7.4,10.2,15.2
	C204.8,107.5,202.2,115.8,194.7,115.8z M240,114.8c-1.5,0.8-3.1,1-5.1,1c-6.2,0-12.2-5.9-12.2-15.9c0-9.6,5.2-15.6,12.9-15.6
	c2.8,0,5.8,1,7.7,2.2l2.3-5c-2.4-1.8-6.3-3.3-10.2-3.3c-12.6,0-20.4,10-20.4,21.5c0,12.4,7.8,22,20.2,22c4.1,0,8.1-1.1,12-2.6v-17.4
	H240V114.8z M278.1,91.1c0-8.2-5-12.2-13.1-12.2h-11.3v42.1h7.2v-15.9h3.2l6.8,15.9h8.2l-8.5-17.4
	C275.5,101.2,278.1,96.2,278.1,91.1z M264,99.8c-0.7,0.1-2.4,0.1-3,0.2V84.6h3.2c4.3,0,6.7,2.5,6.7,6.8
	C270.9,97.1,267.5,99.6,264,99.8z M294,79l-14.6,42.1h6.3l3.7-11.5H302l3.3,11.5h8.1L300,79H294z M291.2,104.4
	c1.7-5.5,3.4-10.7,4.9-17.1h0.1c1.7,6.5,3.2,11.6,4.8,17.1H291.2z M366.2,95.1h-15V79h-7.2v42.1h7.2v-20.3h15v20.3h7.2v-42h-7.2
	V95.1z M380.4,121.1h7.2V79h-7.2V121.1z M412.8,115.8c-7,0-12.9-5.9-12.9-15.9c0-9.6,5.4-15.6,12.7-15.6c2.8,0,5.7,1.3,7.4,2.3
	l2.3-5.1c-2.5-1.7-6-3.3-9.7-3.3c-12.6,0-20.3,10-20.3,21.5c0,12.4,7.8,22,20.2,22c3.5,0,7.3-1.4,9.5-2.9l-2-5.2
	C418.2,114.9,415.6,115.8,412.8,115.8z M327,79h-11.2v42.1h7.2v-15.9h3.2c8.6,0,13.8-7,13.8-14.1C340,82.9,335,79,327,79z
	 M325.9,99.8c-0.7,0.1-2.5,0.1-3,0.2V84.6h3.2c4.2,0,6.6,2.5,6.6,6.8C332.8,97.1,329.4,99.6,325.9,99.8z"/>
</svg>
