<?xml version="1.0" encoding="utf-8"?>
<!-- Generator: Adobe Illustrator 18.1.1, SVG Export Plug-In . SVG Version: 6.00 Build 0)  -->
<!DOCTYPE svg PUBLIC "-//W3C//DTD SVG 1.1//EN" "http://www.w3.org/Graphics/SVG/1.1/DTD/svg11.dtd">
<svg version="1.1" id="Layer_1" xmlns="http://www.w3.org/2000/svg" xmlns:xlink="http://www.w3.org/1999/xlink" x="0px" y="0px"
	 viewBox="0 0 283.5 283.5" enable-background="new 0 0 283.5 283.5" xml:space="preserve">
<g>
	<path fill="#AAAAAA" d="M116.1,87.1c0,0-0.3-3-1.3-4.8c0,0-1.9-3.3-6.3-3.3c0,0-3.2,0-5.3,2.3c0,0-2.1,2.3-2.3,5.8H116.1z
		 M114.4,76.3c0,0,2.7,1.4,4.2,3.5c0,0,1.4,2.1,1.8,4.8c0,0,0.4,1.9,0.4,6h-20c0,0,0.1,4.2,2,6.7c0,0,1.8,2.5,5.7,2.5
		c0,0,3.6,0,5.7-2.4c0,0,1.2-1.4,1.7-3.2h4.5c0,0-0.2,1.5-1.2,3.4c0,0-1,1.9-2.3,3c0,0-2.1,2-5.2,2.8c0,0-1.7,0.4-3.8,0.4
		c0,0-5.1,0-8.7-3.7c0,0-3.5-3.7-3.5-10.4c0,0,0-6.6,3.6-10.7c0,0,3.6-4.1,9.3-4.1C108.7,75,111.6,75,114.4,76.3z M68.3,65.3h4.6v14
		c0,0,1.6-2.1,2.9-2.9c0,0,2.2-1.5,5.5-1.5c0,0,5.9,0,8.1,4.2c0,0,1.1,2.3,1.1,6.3v17.5h-4.7V85.7c0,0,0-3-0.8-4.4
		c0,0-1.2-2.2-4.7-2.2c0,0-2.9,0-5.2,2c0,0-2.3,2-2.3,7.4v14.5h-4.6V65.3z M64.2,65.4v4.5H51.6v33h-5.2v-33H33.8v-4.5H64.2z"/>
	<path fill="#FFFFFF" d="M159.1,136.1c0,0-0.3-3-1.3-4.8c0,0-1.9-3.3-6.3-3.3c0,0-3.2,0-5.3,2.3c0,0-2.1,2.3-2.3,5.8H159.1z
		 M157.4,125.3c0,0,2.7,1.4,4.2,3.5c0,0,1.4,2.1,1.8,4.8c0,0,0.4,1.9,0.4,6h-20c0,0,0.1,4.2,2,6.7c0,0,1.8,2.5,5.7,2.5
		c0,0,3.6,0,5.7-2.4c0,0,1.2-1.4,1.7-3.2h4.5c0,0-0.2,1.5-1.2,3.4c0,0-1,1.9-2.3,3c0,0-2.1,2-5.2,2.8c0,0-1.7,0.4-3.8,0.4
		c0,0-5.1,0-8.7-3.7c0,0-3.5-3.7-3.5-10.4c0,0,0-6.6,3.6-10.7c0,0,3.6-4.1,9.3-4.1C151.8,124,154.7,124,157.4,125.3z M132.3,126
		c0,0,2.9,2.2,3.5,7.7h-4.5c0,0-0.4-2.5-1.9-4.2c0,0-1.5-1.7-4.7-1.7c0,0-4.4,0-6.3,4.3c0,0-1.2,2.8-1.2,6.9c0,0,0,4.1,1.7,6.9
		c0,0,1.7,2.8,5.5,2.8c0,0,2.9,0,4.5-1.7c0,0,1.7-1.7,2.3-4.8h4.5c0,0-0.8,5.4-3.8,8c0,0-3.1,2.5-7.8,2.5c0,0-5.4,0-8.6-3.9
		c0,0-3.2-3.9-3.2-9.8c0,0,0-7.2,3.5-11.2c0,0,3.5-4,8.9-4C124.8,123.8,129.4,123.8,132.3,126z M102.7,114.4h4.7v5.2h-4.7V114.4z
		 M102.7,124.7h4.7v27.2h-4.7V124.7z M90.3,116.2c0,0,1.6-2.3,6.2-2.3c0,0,0.4,0,0.9,0c0,0,0.5,0,1,0.1v4.2c0,0-0.7,0-1-0.1
		c0,0-0.3,0-0.6,0c0,0-2.1,0-2.5,1.1c0,0-0.4,1.1-0.4,5.5h4.5v3.6h-4.6v23.6h-4.5v-23.6h-3.8v-3.6h3.8v-4.3
		C89.3,120.4,89.4,117.6,90.3,116.2z M75.8,116.2c0,0,1.6-2.3,6.2-2.3c0,0,0.4,0,0.9,0c0,0,0.5,0,1,0.1v4.2c0,0-0.7,0-1-0.1
		c0,0-0.3,0-0.6,0c0,0-2.1,0-2.5,1.1c0,0-0.4,1.1-0.4,5.5h4.5v3.6h-4.6v23.6h-4.5v-23.6H71v-3.6h3.8v-4.3
		C74.8,120.4,74.9,117.6,75.8,116.2z M60,143.7c0,0,3-4.8,3-11.1c0,0,0-6.6-3.5-10.6c0,0-3.5-4-9.5-4c0,0-5.8,0-9.5,4
		c0,0-3.7,4-3.7,11.8c0,0,0,6.2,3.2,10.5c0,0,3.1,4.3,10.2,4.3C50.3,148.5,57,148.5,60,143.7z M64.4,119.8c0,0,3.7,5,3.7,12.7
		c0,0,0,8.4-4.3,14c0,0-5,6.5-14.3,6.5c0,0-8.7,0-13.6-5.7c0,0-4.4-5.5-4.4-13.9c0,0,0-7.6,3.8-13c0,0,4.8-6.9,14.3-6.9
		C49.7,113.4,59.7,113.4,64.4,119.8z"/>
	<path fill="#FFFFFF" d="M217.3,185.1c0,0-0.3-3-1.3-4.8c0,0-1.9-3.3-6.3-3.3c0,0-3.2,0-5.3,2.3c0,0-2.1,2.3-2.3,5.8H217.3z
		 M215.6,174.4c0,0,2.7,1.4,4.2,3.5c0,0,1.4,2.1,1.8,4.8c0,0,0.4,1.9,0.4,6h-20c0,0,0.1,4.2,2,6.7c0,0,1.8,2.5,5.7,2.5
		c0,0,3.6,0,5.7-2.4c0,0,1.2-1.4,1.7-3.2h4.5c0,0-0.2,1.5-1.2,3.4c0,0-1,1.9-2.3,3c0,0-2.1,2-5.2,2.8c0,0-1.7,0.4-3.8,0.4
		c0,0-5.1,0-8.7-3.7c0,0-3.6-3.7-3.6-10.4c0,0,0-6.6,3.6-10.7c0,0,3.6-4.1,9.3-4.1C209.9,173,212.8,173,215.6,174.4z M174.7,173.6
		l7.3,22.3l7.6-22.3h5l-10.3,27.3h-4.9l-10.1-27.3H174.7z M160.8,163.4h4.7v5.2h-4.7V163.4z M160.8,173.7h4.7v27.2h-4.7V173.7z
		 M147.2,166h4.6v7.6h4.4v3.8h-4.4v17.8c0,0,0,1.4,1,1.9c0,0,0.5,0.3,1.8,0.3c0,0,0.3,0,0.7,0c0,0,0.4,0,0.9-0.1v3.6
		c0,0-0.8,0.2-1.6,0.3c0,0-0.9,0.1-1.9,0.1c0,0-3.2,0-4.4-1.7c0,0-1.1-1.6-1.1-4.3v-18.1h-3.7v-3.8h3.7V166z M131.8,184.4
		c0,0,1.6-0.2,2.1-1.3c0,0,0.3-0.6,0.3-1.8c0,0,0-2.4-1.7-3.4c0,0-1.7-1.1-4.8-1.1c0,0-3.6,0-5.1,1.9c0,0-0.8,1.1-1.1,3.2h-4.3
		c0,0,0.1-5.1,3.3-7c0,0,3.2-2,7.3-2c0,0,4.8,0,7.8,1.8c0,0,3,1.8,3,5.7v15.8c0,0,0,0.7,0.3,1.1c0,0,0.3,0.4,1.2,0.4
		c0,0,0.3,0,0.7,0c0,0,0.4,0,0.8-0.1v3.4c0,0-1.1,0.3-1.6,0.4c0,0-0.6,0.1-1.5,0.1c0,0-2.4,0-3.4-1.7c0,0-0.6-0.9-0.8-2.5
		c0,0-1.4,1.8-4,3.2c0,0-2.6,1.4-5.8,1.4c0,0-3.8,0-6.2-2.3c0,0-2.4-2.3-2.4-5.8c0,0,0-3.8,2.4-5.9c0,0,2.4-2.1,6.2-2.6L131.8,184.4
		z M122.2,196.8c0,0,1.5,1.1,3.4,1.1c0,0,2.4,0,4.7-1.1c0,0,3.8-1.9,3.8-6.1V187c0,0-0.8,0.5-2.2,0.9c0,0-1.3,0.4-2.6,0.5l-2.8,0.4
		c0,0-2.5,0.3-3.8,1c0,0-2.1,1.2-2.1,3.8C120.7,193.7,120.7,195.7,122.2,196.8z M106.8,185.1c0,0-0.3-3-1.3-4.8c0,0-1.9-3.3-6.3-3.3
		c0,0-3.2,0-5.3,2.3c0,0-2.1,2.3-2.3,5.8H106.8z M105.1,174.4c0,0,2.7,1.4,4.2,3.5c0,0,1.4,2.1,1.8,4.8c0,0,0.4,1.9,0.4,6h-20
		c0,0,0.1,4.2,2,6.7c0,0,1.8,2.5,5.7,2.5c0,0,3.6,0,5.7-2.4c0,0,1.2-1.4,1.7-3.2h4.5c0,0-0.2,1.5-1.2,3.4c0,0-1,1.9-2.3,3
		c0,0-2.1,2-5.2,2.8c0,0-1.7,0.4-3.8,0.4c0,0-5.1,0-8.7-3.7c0,0-3.6-3.7-3.6-10.4c0,0,0-6.6,3.6-10.7c0,0,3.6-4.1,9.3-4.1
		C99.5,173,102.4,173,105.1,174.4z M70.8,173.6h4.4v4.7c0,0,0.5-1.4,2.6-3.4c0,0,2.1-2,4.8-2c0,0,0.1,0,0.4,0c0,0,0.3,0,1,0.1v4.8
		c0,0-0.4-0.1-0.8-0.1c0,0-0.3,0-0.8,0c0,0-3.5,0-5.3,2.2c0,0-1.9,2.2-1.9,5.1v15.7h-4.6V173.6z M60.4,166.2c0,0,3.9,3.8,4.4,8.5h-5
		c0,0-0.8-3.6-3.4-5.7c0,0-2.5-2.1-7.1-2.1c0,0-5.5,0-8.9,3.9c0,0-3.4,3.9-3.4,11.9c0,0,0,6.6,3.1,10.7c0,0,3.1,4.1,9.2,4.1
		c0,0,5.6,0,8.6-4.3c0,0,1.6-2.3,2.3-6h5c0,0-0.7,5.9-4.4,9.9c0,0-4.5,4.8-12,4.8c0,0-6.5,0-11-4c0,0-5.8-5.2-5.8-16.2
		c0,0,0-8.3,4.4-13.6c0,0,4.7-5.8,13.1-5.8C49.4,162.4,56.5,162.4,60.4,166.2z"/>
	<path fill="#FFFFFF" d="M227.6,212.3h4.6v14c0,0,1.6-2.1,2.9-2.9c0,0,2.2-1.5,5.5-1.5c0,0,5.9,0,8.1,4.2c0,0,1.1,2.3,1.1,6.3V250
		h-4.7v-17.2c0,0,0-3-0.8-4.4c0,0-1.3-2.2-4.7-2.2c0,0-2.9,0-5.2,2c0,0-2.3,2-2.3,7.4V250h-4.6V212.3z M219.5,224.1
		c0,0,2.9,2.2,3.5,7.7h-4.5c0,0-0.4-2.5-1.9-4.2c0,0-1.5-1.7-4.7-1.7c0,0-4.4,0-6.3,4.3c0,0-1.2,2.8-1.2,6.9c0,0,0,4.1,1.7,6.9
		c0,0,1.7,2.8,5.5,2.8c0,0,2.9,0,4.5-1.7c0,0,1.7-1.7,2.3-4.8h4.5c0,0-0.8,5.4-3.8,8c0,0-3.1,2.5-7.8,2.5c0,0-5.4,0-8.6-3.9
		c0,0-3.2-3.9-3.2-9.8c0,0,0-7.2,3.5-11.2c0,0,3.5-4,8.9-4C212,221.8,216.6,221.8,219.5,224.1z M184.2,222.6h4.4v4.7
		c0,0,0.5-1.4,2.6-3.4c0,0,2.1-2,4.8-2c0,0,0.1,0,0.4,0c0,0,0.3,0,1,0.1v4.8c0,0-0.4-0.1-0.8-0.1c0,0-0.3,0-0.8,0c0,0-3.5,0-5.3,2.2
		c0,0-1.9,2.2-1.9,5.1V250h-4.6V222.6z M169.6,233.4c0,0,1.6-0.2,2.1-1.3c0,0,0.3-0.6,0.3-1.8c0,0,0-2.4-1.7-3.4
		c0,0-1.7-1.1-4.8-1.1c0,0-3.6,0-5.1,1.9c0,0-0.8,1.1-1.1,3.2h-4.3c0,0,0.1-5.1,3.3-7c0,0,3.2-2,7.3-2c0,0,4.8,0,7.8,1.8
		c0,0,3,1.8,3,5.7v15.8c0,0,0,0.7,0.3,1.1c0,0,0.3,0.4,1.2,0.4c0,0,0.3,0,0.7,0c0,0,0.4,0,0.8-0.1v3.4c0,0-1.1,0.3-1.6,0.4
		c0,0-0.6,0.1-1.5,0.1c0,0-2.4,0-3.4-1.7c0,0-0.6-0.9-0.8-2.5c0,0-1.4,1.8-4,3.2c0,0-2.6,1.4-5.8,1.4c0,0-3.8,0-6.2-2.3
		c0,0-2.4-2.3-2.4-5.8c0,0,0-3.8,2.4-5.9c0,0,2.4-2.1,6.2-2.6L169.6,233.4z M160,245.8c0,0,1.5,1.1,3.4,1.1c0,0,2.4,0,4.7-1.1
		c0,0,3.8-1.9,3.8-6.1V236c0,0-0.8,0.5-2.2,0.9c0,0-1.3,0.4-2.6,0.5l-2.8,0.4c0,0-2.5,0.3-3.8,1c0,0-2.1,1.2-2.1,3.8
		C158.5,242.7,158.5,244.7,160,245.8z M144.6,234.1c0,0-0.3-3-1.3-4.8c0,0-1.9-3.3-6.3-3.3c0,0-3.2,0-5.3,2.3c0,0-2.1,2.3-2.3,5.8
		H144.6z M142.9,223.4c0,0,2.7,1.4,4.2,3.5c0,0,1.4,2.1,1.8,4.8c0,0,0.4,1.9,0.4,6h-20c0,0,0.1,4.2,2,6.7c0,0,1.8,2.5,5.7,2.5
		c0,0,3.6,0,5.7-2.4c0,0,1.2-1.4,1.7-3.2h4.5c0,0-0.2,1.5-1.2,3.4c0,0-1,1.9-2.3,3c0,0-2.1,2-5.2,2.8c0,0-1.7,0.4-3.8,0.4
		c0,0-5.1,0-8.7-3.7c0,0-3.6-3.7-3.6-10.4c0,0,0-6.6,3.6-10.7c0,0,3.6-4.1,9.3-4.1C137.3,222,140.2,222,142.9,223.4z M102.5,241.4
		c0,0,0.2,2.3,1.1,3.5c0,0,1.7,2.2,6,2.2c0,0,2.6,0,4.5-1.1c0,0,1.9-1.1,1.9-3.4c0,0,0-1.8-1.6-2.7c0,0-1-0.6-3.9-1.3l-3.6-0.9
		c0,0-3.5-0.9-5.2-1.9c0,0-3-1.9-3-5.2c0,0,0-3.9,2.8-6.3c0,0,2.8-2.4,7.5-2.4c0,0,6.2,0,8.9,3.6c0,0,1.7,2.3,1.7,5h-4.3
		c0,0-0.1-1.6-1.1-2.8c0,0-1.6-1.8-5.5-1.8c0,0-2.6,0-3.9,1c0,0-1.3,1-1.3,2.6c0,0,0,1.8,1.8,2.9c0,0,1,0.6,3,1.1l3,0.7
		c0,0,5,1.2,6.6,2.3c0,0,2.7,1.8,2.7,5.5c0,0,0,3.6-2.8,6.3c0,0-2.8,2.7-8.4,2.7c0,0-6.1,0-8.6-2.8c0,0-2.5-2.8-2.7-6.9H102.5z
		 M89.4,234.1c0,0-0.3-3-1.3-4.8c0,0-1.9-3.3-6.3-3.3c0,0-3.2,0-5.3,2.3c0,0-2.1,2.3-2.3,5.8H89.4z M87.7,223.4c0,0,2.7,1.4,4.2,3.5
		c0,0,1.4,2.1,1.8,4.8c0,0,0.4,1.9,0.4,6h-20c0,0,0.1,4.2,2,6.7c0,0,1.8,2.5,5.7,2.5c0,0,3.6,0,5.7-2.4c0,0,1.2-1.4,1.7-3.2h4.5
		c0,0-0.2,1.5-1.2,3.4c0,0-1,1.9-2.3,3c0,0-2.1,2-5.2,2.8c0,0-1.7,0.4-3.8,0.4c0,0-5.1,0-8.7-3.7c0,0-3.6-3.7-3.6-10.4
		c0,0,0-6.6,3.6-10.7c0,0,3.6-4.1,9.3-4.1C82.1,222,85,222,87.7,223.4z M34.2,212.5h17.4c0,0,4.3,0,7.1,1.3c0,0,5.3,2.4,5.3,8.9
		c0,0,0,3.4-1.4,5.5c0,0-1.4,2.1-3.9,3.4c0,0,2.2,0.9,3.3,2.3c0,0,1.1,1.5,1.2,4.7l0.2,5c0,0,0.1,2.1,0.4,3.2c0,0,0.5,1.8,1.6,2.3
		v0.8h-6.2c0,0-0.3-0.5-0.4-1.3c0,0-0.2-0.8-0.3-3l-0.3-6.3c0,0-0.2-3.7-2.7-4.9c0,0-1.5-0.7-4.6-0.7H39.2V250h-5.1V212.5z
		 M51,229.6c0,0,3.6,0,5.7-1.4c0,0,2.1-1.4,2.1-5.2c0,0,0-4-2.9-5.5c0,0-1.6-0.8-4.2-0.8H39.2v12.8H51z"/>
	<path fill="#AAAAAA" d="M223.7,124.6h4.4v4.7c0,0,0.5-1.4,2.6-3.4c0,0,2.1-2,4.8-2c0,0,0.1,0,0.4,0c0,0,0.3,0,1.1,0.1v4.8
		c0,0-0.4-0.1-0.8-0.1c0,0-0.3,0-0.8,0c0,0-3.5,0-5.3,2.2c0,0-1.9,2.2-1.9,5.1v15.7h-4.6V124.6z M214.5,127.3c0,0,3.6,3.5,3.6,10.4
		c0,0,0,6.6-3.2,10.9c0,0-3.2,4.3-10,4.3c0,0-5.6,0-9-3.8c0,0-3.3-3.8-3.3-10.2c0,0,0-6.9,3.5-11c0,0,3.5-4.1,9.4-4.1
		C205.5,123.8,210.8,123.8,214.5,127.3z M211.6,145.5c0,0,1.7-3.5,1.7-7.7c0,0,0-3.8-1.2-6.2c0,0-1.9-3.8-6.7-3.8c0,0-4.2,0-6.1,3.2
		c0,0-1.9,3.2-1.9,7.8c0,0,0,4.4,1.9,7.3c0,0,1.9,2.9,6.1,2.9C205.4,149,209.9,149,211.6,145.5z M182.1,116.2c0,0,1.6-2.3,6.2-2.3
		c0,0,0.4,0,0.9,0c0,0,0.5,0,1,0.1v4.2c0,0-0.7,0-1-0.1c0,0-0.3,0-0.6,0c0,0-2.1,0-2.5,1.1c0,0-0.4,1.1-0.4,5.5h4.5v3.6h-4.6v23.6
		h-4.5v-23.6h-3.8v-3.6h3.8v-4.3C181.1,120.4,181.2,117.6,182.1,116.2z"/>
</g>
</svg>
