<?xml version="1.0" encoding="utf-8"?>
<!-- Generator: Adobe Illustrator 18.1.1, SVG Export Plug-In . SVG Version: 6.00 Build 0)  -->
<!DOCTYPE svg PUBLIC "-//W3C//DTD SVG 1.1//EN" "http://www.w3.org/Graphics/SVG/1.1/DTD/svg11.dtd">
<svg version="1.1" id="Layer_1" xmlns="http://www.w3.org/2000/svg" xmlns:xlink="http://www.w3.org/1999/xlink" x="0px" y="0px"
	 viewBox="60 196.4 415.8 353.7" enable-background="new 60 196.4 415.8 353.7" xml:space="preserve">
<g>
	<path fill="#FFFFFF" d="M221.1,237.9c0,0-0.6-5.7-2.5-9.1c0,0-3.6-6.3-12-6.3c0,0-6.1,0-10.1,4.4c0,0-4,4.4-4.4,11H221.1z
		 M217.9,217.3c0,0,5.1,2.7,8,6.7c0,0,2.7,4,3.4,9.1c0,0,0.8,3.6,0.8,11.4H192c0,0,0.2,8,3.8,12.8c0,0,3.4,4.8,10.9,4.8
		c0,0,6.9,0,10.9-4.6c0,0,2.3-2.7,3.2-6.1h8.6c0,0-0.4,2.9-2.3,6.5c0,0-1.9,3.6-4.4,5.7c0,0-4,3.8-9.9,5.3c0,0-3.2,0.8-7.2,0.8
		c0,0-9.7,0-16.6-7c0,0-6.7-7-6.7-19.8c0,0,0-12.6,6.9-20.4c0,0,6.9-7.8,17.7-7.8C207,214.9,212.6,214.9,217.9,217.3z M130.1,196.4
		h8.8V223c0,0,3-4,5.5-5.5c0,0,4.2-2.9,10.5-2.9c0,0,11.2,0,15.4,8c0,0,2.1,4.4,2.1,12V268h-9v-32.8c0,0,0-5.7-1.5-8.4
		c0,0-2.3-4.2-9-4.2c0,0-5.5,0-9.9,3.8c0,0-4.4,3.8-4.4,14.1v27.6h-8.8v-71.8H130.1z M122.3,196.6v8.6h-24V268h-9.9v-62.9h-24v-8.6
		H122.3z"/>
	<path fill="#FFFFFF" d="M303,331.2c0,0-0.6-5.7-2.5-9.1c0,0-3.6-6.3-12-6.3c0,0-6.1,0-10.1,4.4c0,0-4,4.4-4.4,11H303z M299.8,310.7
		c0,0,5.1,2.7,8,6.7c0,0,2.7,4,3.4,9.1c0,0,0.8,3.6,0.8,11.4h-38.1c0,0,0.2,8,3.8,12.8c0,0,3.4,4.8,10.9,4.8c0,0,6.9,0,10.9-4.6
		c0,0,2.3-2.7,3.2-6.1h8.6c0,0-0.4,2.9-2.3,6.5c0,0-1.9,3.6-4.4,5.7c0,0-4,3.8-9.9,5.3c0,0-3.2,0.8-7.2,0.8c0,0-9.7,0-16.6-7
		c0,0-6.7-7-6.7-19.8c0,0,0-12.6,6.9-20.4c0,0,6.9-7.8,17.7-7.8C289.1,308.2,294.7,308.2,299.8,310.7z M252,312
		c0,0,5.5,4.2,6.7,14.7h-8.6c0,0-0.8-4.8-3.6-8c0,0-2.9-3.2-9-3.2c0,0-8.4,0-12,8.2c0,0-2.3,5.3-2.3,13.1c0,0,0,7.8,3.2,13.1
		c0,0,3.2,5.3,10.5,5.3c0,0,5.5,0,8.6-3.2c0,0,3.2-3.2,4.4-9.1h8.6c0,0-1.5,10.3-7.2,15.2c0,0-5.9,4.8-14.9,4.8c0,0-10.3,0-16.4-7.4
		c0,0-6.1-7.4-6.1-18.7c0,0,0-13.7,6.7-21.3c0,0,6.7-7.6,17-7.6C237.7,307.8,246.5,307.8,252,312z M195.6,289.9h9v9.9h-9V289.9z
		 M195.6,309.5h9v51.8h-9V309.5z M172,293.3c0,0,3-4.4,11.8-4.4c0,0,0.8,0,1.7,0c0,0,1,0,1.9,0.2v8c0,0-1.3,0-1.9-0.2
		c0,0-0.6,0-1.1,0c0,0-4,0-4.8,2.1c0,0-0.8,2.1-0.8,10.5h8.6v6.9h-8.8v45h-8.6v-45h-7.2v-6.9h7.2v-8.2
		C170.1,301.3,170.3,296,172,293.3z M144.4,293.3c0,0,3-4.4,11.8-4.4c0,0,0.8,0,1.7,0c0,0,1,0,1.9,0.2v8c0,0-1.3,0-1.9-0.2
		c0,0-0.6,0-1.1,0c0,0-4,0-4.8,2.1c0,0-0.8,2.1-0.8,10.5h8.6v6.9H151v45h-8.6v-45h-7.2v-6.9h7.2v-8.2
		C142.5,301.3,142.7,296,144.4,293.3z M114.3,345.7c0,0,5.7-9.1,5.7-21.1c0,0,0-12.6-6.7-20.2c0,0-6.7-7.6-18.1-7.6
		c0,0-11,0-18.1,7.6c0,0-7,7.6-7,22.5c0,0,0,11.8,6.1,20c0,0,5.9,8.2,19.4,8.2C95.8,354.9,108.6,354.9,114.3,345.7z M122.7,300.2
		c0,0,7,9.5,7,24.2c0,0,0,16-8.2,26.7c0,0-9.5,12.4-27.2,12.4c0,0-16.6,0-25.9-10.9c0,0-8.4-10.5-8.4-26.5c0,0,0-14.5,7.2-24.8
		c0,0,9.1-13.1,27.2-13.1C94.7,288,113.7,288,122.7,300.2z"/>
	<path fill="#FFFFFF" d="M413.9,424.6c0,0-0.6-5.7-2.5-9.1c0,0-3.6-6.3-12-6.3c0,0-6.1,0-10.1,4.4c0,0-4,4.4-4.4,11H413.9z
		 M410.7,404.2c0,0,5.1,2.7,8,6.7c0,0,2.7,4,3.4,9.1c0,0,0.8,3.6,0.8,11.4h-38.1c0,0,0.2,8,3.8,12.8c0,0,3.4,4.8,10.9,4.8
		c0,0,6.9,0,10.9-4.6c0,0,2.3-2.7,3.2-6.1h8.6c0,0-0.4,2.9-2.3,6.5c0,0-1.9,3.6-4.4,5.7c0,0-4,3.8-9.9,5.3c0,0-3.2,0.8-7.2,0.8
		c0,0-9.7,0-16.6-7c0,0-6.9-7-6.9-19.8c0,0,0-12.6,6.9-20.4c0,0,6.9-7.8,17.7-7.8C399.8,401.5,405.3,401.5,410.7,404.2z
		 M332.8,402.7l13.9,42.5l14.5-42.5h9.5l-19.6,52h-9.3l-19.2-52H332.8z M306.3,383.2h9v9.9h-9V383.2z M306.3,402.9h9v51.8h-9V402.9z
		 M280.4,388.2h8.8v14.5h8.4v7.2h-8.4v33.9c0,0,0,2.7,1.9,3.6c0,0,1,0.6,3.4,0.6c0,0,0.6,0,1.3,0c0,0,0.8,0,1.7-0.2v6.9
		c0,0-1.5,0.4-3,0.6c0,0-1.7,0.2-3.6,0.2c0,0-6.1,0-8.4-3.2c0,0-2.1-3-2.1-8.2v-34.5h-7v-7.2h7V388.2z M251,423.2c0,0,3-0.4,4-2.5
		c0,0,0.6-1.1,0.6-3.4c0,0,0-4.6-3.2-6.5c0,0-3.2-2.1-9.1-2.1c0,0-6.9,0-9.7,3.6c0,0-1.5,2.1-2.1,6.1h-8.2c0,0,0.2-9.7,6.3-13.3
		c0,0,6.1-3.8,13.9-3.8c0,0,9.1,0,14.9,3.4c0,0,5.7,3.4,5.7,10.9v30.1c0,0,0,1.3,0.6,2.1c0,0,0.6,0.8,2.3,0.8c0,0,0.6,0,1.3,0
		c0,0,0.8,0,1.5-0.2v6.5c0,0-2.1,0.6-3,0.8c0,0-1.1,0.2-2.9,0.2c0,0-4.6,0-6.5-3.2c0,0-1.1-1.7-1.5-4.8c0,0-2.7,3.4-7.6,6.1
		c0,0-5,2.7-11,2.7c0,0-7.2,0-11.8-4.4c0,0-4.6-4.4-4.6-11c0,0,0-7.2,4.6-11.2c0,0,4.6-4,11.8-5L251,423.2z M232.8,446.9
		c0,0,2.9,2.1,6.5,2.1c0,0,4.6,0,9-2.1c0,0,7.2-3.6,7.2-11.6v-7c0,0-1.5,1-4.2,1.7c0,0-2.5,0.8-5,1l-5.3,0.8c0,0-4.8,0.6-7.2,1.9
		c0,0-4,2.3-4,7.2C229.9,441,229.9,444.8,232.8,446.9z M203.4,424.6c0,0-0.6-5.7-2.5-9.1c0,0-3.6-6.3-12-6.3c0,0-6.1,0-10.1,4.4
		c0,0-4,4.4-4.4,11H203.4z M200.2,404.2c0,0,5.1,2.7,8,6.7c0,0,2.7,4,3.4,9.1c0,0,0.8,3.6,0.8,11.4h-38.1c0,0,0.2,8,3.8,12.8
		c0,0,3.4,4.8,10.9,4.8c0,0,6.9,0,10.9-4.6c0,0,2.3-2.7,3.2-6.1h8.6c0,0-0.4,2.9-2.3,6.5c0,0-1.9,3.6-4.4,5.7c0,0-4,3.8-9.9,5.3
		c0,0-3.2,0.8-7.2,0.8c0,0-9.7,0-16.6-7c0,0-6.9-7-6.9-19.8c0,0,0-12.6,6.9-20.4c0,0,6.9-7.8,17.7-7.8
		C189.5,401.5,195,401.5,200.2,404.2z M134.9,402.7h8.4v9c0,0,1-2.7,5-6.5c0,0,4-3.8,9.1-3.8c0,0,0.2,0,0.8,0c0,0,0.6,0,1.9,0.2v9.1
		c0,0-0.8-0.2-1.5-0.2c0,0-0.6,0-1.5,0c0,0-6.7,0-10.1,4.2c0,0-3.6,4.2-3.6,9.7v29.9h-8.8v-51.6H134.9z M115,388.6
		c0,0,7.4,7.2,8.4,16.2h-9.5c0,0-1.5-6.9-6.5-10.9c0,0-4.8-4-13.5-4c0,0-10.5,0-17,7.4c0,0-6.5,7.4-6.5,22.7c0,0,0,12.6,5.9,20.4
		c0,0,5.9,7.8,17.5,7.8c0,0,10.7,0,16.4-8.2c0,0,3-4.4,4.4-11.4h9.5c0,0-1.3,11.2-8.4,18.9c0,0-8.6,9.1-22.9,9.1c0,0-12.4,0-21-7.6
		c0,0-11-9.9-11-30.9c0,0,0-15.8,8.4-25.9c0,0,9-11,25-11C94.1,381.3,107.6,381.3,115,388.6z"/>
	<path fill="#FFFFFF" d="M433.5,476.4h8.8V503c0,0,3-4,5.5-5.5c0,0,4.2-2.9,10.5-2.9c0,0,11.2,0,15.4,8c0,0,2.1,4.4,2.1,12v33.5h-9
		v-32.8c0,0,0-5.7-1.5-8.4c0,0-2.5-4.2-9-4.2c0,0-5.5,0-9.9,3.8c0,0-4.4,3.8-4.4,14.1v27.4h-8.8v-71.8H433.5z M418.1,498.9
		c0,0,5.5,4.2,6.7,14.7h-8.6c0,0-0.8-4.8-3.6-8c0,0-2.9-3.2-9-3.2c0,0-8.4,0-12,8.2c0,0-2.3,5.3-2.3,13.1c0,0,0,7.8,3.2,13.1
		c0,0,3.2,5.3,10.5,5.3c0,0,5.5,0,8.6-3.2c0,0,3.2-3.2,4.4-9.1h8.6c0,0-1.5,10.3-7.2,15.2c0,0-5.9,4.8-14.9,4.8c0,0-10.3,0-16.4-7.4
		c0,0-6.1-7.4-6.1-18.7c0,0,0-13.7,6.7-21.3c0,0,6.7-7.6,17-7.6C403.8,494.5,412.6,494.5,418.1,498.9z M350.9,496h8.4v9
		c0,0,1-2.7,5-6.5c0,0,4-3.8,9.1-3.8c0,0,0.2,0,0.8,0c0,0,0.6,0,1.9,0.2v9.1c0,0-0.8-0.2-1.5-0.2c0,0-0.6,0-1.5,0
		c0,0-6.7,0-10.1,4.2c0,0-3.6,4.2-3.6,9.7v30.5h-8.8V496H350.9z M323,516.6c0,0,3-0.4,4-2.5c0,0,0.6-1.1,0.6-3.4c0,0,0-4.6-3.2-6.5
		c0,0-3.2-2.1-9.1-2.1c0,0-6.9,0-9.7,3.6c0,0-1.5,2.1-2.1,6.1h-8.2c0,0,0.2-9.7,6.3-13.3c0,0,6.1-3.8,13.9-3.8c0,0,9.1,0,14.9,3.4
		c0,0,5.7,3.4,5.7,10.9V539c0,0,0,1.3,0.6,2.1c0,0,0.6,0.8,2.3,0.8c0,0,0.6,0,1.3,0c0,0,0.8,0,1.5-0.2v6.5c0,0-2.1,0.6-3,0.8
		c0,0-1.1,0.2-2.9,0.2c0,0-4.6,0-6.5-3.2c0,0-1.1-1.7-1.5-4.8c0,0-2.7,3.4-7.6,6.1c0,0-5,2.7-11,2.7c0,0-7.2,0-11.8-4.4
		c0,0-4.6-4.4-4.6-11c0,0,0-7.2,4.6-11.2c0,0,4.6-4,11.8-5L323,516.6z M304.8,540.2c0,0,2.9,2.1,6.5,2.1c0,0,4.6,0,9-2.1
		c0,0,7.2-3.6,7.2-11.6v-7c0,0-1.5,1-4.2,1.7c0,0-2.5,0.8-5,1L313,525c0,0-4.8,0.6-7.2,1.9c0,0-4,2.3-4,7.2
		C301.9,534.3,301.9,538.1,304.8,540.2z M275.4,517.9c0,0-0.6-5.7-2.5-9.1c0,0-3.6-6.3-12-6.3c0,0-6.1,0-10.1,4.4c0,0-4,4.4-4.4,11
		H275.4z M272.2,497.5c0,0,5.1,2.7,8,6.7c0,0,2.7,4,3.4,9.1c0,0,0.8,3.6,0.8,11.4h-38.1c0,0,0.2,8,3.8,12.8c0,0,3.4,4.8,10.9,4.8
		c0,0,6.9,0,10.9-4.6c0,0,2.3-2.7,3.2-6.1h8.6c0,0-0.4,2.9-2.3,6.5c0,0-1.9,3.6-4.4,5.7c0,0-4,3.8-9.9,5.3c0,0-3.2,0.8-7.2,0.8
		c0,0-9.7,0-16.6-7c0,0-6.9-7-6.9-19.8c0,0,0-12.6,6.9-20.4c0,0,6.9-7.8,17.7-7.8C261.5,494.9,267,494.9,272.2,497.5z M195.2,531.8
		c0,0,0.4,4.4,2.1,6.7c0,0,3.2,4.2,11.4,4.2c0,0,5,0,8.6-2.1c0,0,3.6-2.1,3.6-6.5c0,0,0-3.4-3-5.1c0,0-1.9-1.1-7.4-2.5l-6.9-1.7
		c0,0-6.7-1.7-9.9-3.6c0,0-5.7-3.6-5.7-9.9c0,0,0-7.4,5.3-12c0,0,5.3-4.6,14.3-4.6c0,0,11.8,0,17,6.9c0,0,3.2,4.4,3.2,9.5h-8.2
		c0,0-0.2-3-2.1-5.3c0,0-3-3.4-10.5-3.4c0,0-5,0-7.4,1.9c0,0-2.5,1.9-2.5,5c0,0,0,3.4,3.4,5.5c0,0,1.9,1.1,5.7,2.1l5.7,1.3
		c0,0,9.5,2.3,12.6,4.4c0,0,5.1,3.4,5.1,10.5c0,0,0,6.9-5.3,12c0,0-5.3,5.1-16,5.1c0,0-11.6,0-16.4-5.3c0,0-4.8-5.3-5.1-13.1h8.4
		V531.8z M170.3,517.9c0,0-0.6-5.7-2.5-9.1c0,0-3.6-6.3-12-6.3c0,0-6.1,0-10.1,4.4c0,0-4,4.4-4.4,11H170.3z M167,497.5
		c0,0,5.1,2.7,8,6.7c0,0,2.7,4,3.4,9.1c0,0,0.8,3.6,0.8,11.4h-38.1c0,0,0.2,8,3.8,12.8c0,0,3.4,4.8,10.9,4.8c0,0,6.9,0,10.9-4.6
		c0,0,2.3-2.7,3.2-6.1h8.6c0,0-0.4,2.9-2.3,6.5c0,0-1.9,3.6-4.4,5.7c0,0-4,3.8-9.9,5.3c0,0-3.2,0.8-7.2,0.8c0,0-9.7,0-16.6-7
		c0,0-6.9-7-6.9-19.8c0,0,0-12.6,6.9-20.4c0,0,6.9-7.8,17.7-7.8C156.4,494.9,161.9,494.9,167,497.5z M65.1,476.8h33.1
		c0,0,8.2,0,13.5,2.5c0,0,10.1,4.6,10.1,17c0,0,0,6.5-2.7,10.5c0,0-2.7,4-7.4,6.5c0,0,4.2,1.7,6.3,4.4c0,0,2.1,2.9,2.3,9l0.4,9.5
		c0,0,0.2,4,0.8,6.1c0,0,1,3.4,3,4.4v1.5h-11.8c0,0-0.6-1-0.8-2.5c0,0-0.4-1.5-0.6-5.7l-0.6-12c0,0-0.4-7-5.1-9.3
		c0,0-2.9-1.3-8.8-1.3H74.7v31H65v-71.4H65.1z M97.1,509.3c0,0,6.9,0,10.9-2.7c0,0,4-2.7,4-9.9c0,0,0-7.6-5.5-10.5c0,0-3-1.5-8-1.5
		H74.7v24.4h22.5V509.3z"/>
	<path fill="#FFFFFF" d="M426.1,309.3h8.4v9c0,0,1-2.7,5-6.5c0,0,4-3.8,9.1-3.8c0,0,0.2,0,0.8,0c0,0,0.6,0,2.1,0.2v9.1
		c0,0-0.8-0.2-1.5-0.2c0,0-0.6,0-1.5,0c0,0-6.7,0-10.1,4.2c0,0-3.6,4.2-3.6,9.7V361h-8.8v-51.6H426.1z M408.6,314.5
		c0,0,6.9,6.7,6.9,19.8c0,0,0,12.6-6.1,20.8c0,0-6.1,8.2-19,8.2c0,0-10.7,0-17.1-7.2c0,0-6.3-7.2-6.3-19.4c0,0,0-13.1,6.7-21
		c0,0,6.7-7.8,17.9-7.8C391.4,307.8,401.5,307.8,408.6,314.5z M403,349.1c0,0,3.2-6.7,3.2-14.7c0,0,0-7.2-2.3-11.8
		c0,0-3.6-7.2-12.8-7.2c0,0-8,0-11.6,6.1c0,0-3.6,6.1-3.6,14.9c0,0,0,8.4,3.6,13.9c0,0,3.6,5.5,11.6,5.5
		C391.2,355.8,399.8,355.8,403,349.1z M346.9,293.3c0,0,3-4.4,11.8-4.4c0,0,0.8,0,1.7,0c0,0,1,0,1.9,0.2v8c0,0-1.3,0-1.9-0.2
		c0,0-0.6,0-1.1,0c0,0-4,0-4.8,2.1c0,0-0.8,2.1-0.8,10.5h8.6v6.9h-8.8v45H345v-45h-7.2v-6.9h7.2v-8.2
		C345,301.3,345.1,296,346.9,293.3z"/>
</g>
</svg>
