<?xml version="1.0" encoding="UTF-8" standalone="no"?>
<svg width="35px" height="27px" viewBox="0 0 35 27" version="1.1" xmlns="http://www.w3.org/2000/svg" xmlns:xlink="http://www.w3.org/1999/xlink" xmlns:sketch="http://www.bohemiancoding.com/sketch/ns">
    <!-- Generator: Sketch 3.3.2 (12043) - http://www.bohemiancoding.com/sketch -->
    <title>path5 2 copy</title>
    <desc>Created with Sketch.</desc>
    <defs></defs>
    <g id="JOURNAL" stroke="none" stroke-width="1" fill="none" fill-rule="evenodd" sketch:type="MSPage">
        <g id="JOURNALDESKTOP" sketch:type="MSArtboardGroup" transform="translate(-1352.000000, -30.000000)" stroke="#4BFF87" stroke-width="2">
            <path d="M1384,34.7620852 C1382.96984,35.2306636 1381.86263,35.5470671 1380.70073,35.6895324 C1381.88679,34.9606325 1382.79777,33.8063458 1383.22649,32.430744 C1382.1165,33.1057381 1380.88717,33.5959123 1379.57849,33.8600841 C1378.53087,32.7151723 1377.03788,32 1375.38554,32 C1372.21312,32 1369.641,34.6373653 1369.641,37.8904617 C1369.641,38.3521764 1369.69177,38.8016703 1369.78972,39.2329165 C1365.01558,38.9873271 1360.7828,36.642091 1357.94962,33.078283 C1357.45512,33.9481414 1357.1717,34.9599629 1357.1717,36.0394177 C1357.1717,38.0831498 1358.18586,39.8861474 1359.72717,40.9423323 C1358.7855,40.9116964 1357.89983,40.6466876 1357.12517,40.2057316 C1357.12452,40.2301734 1357.12452,40.2549499 1357.12452,40.2797265 C1357.12452,43.1337193 1359.10467,45.5144462 1361.73263,46.0558477 C1361.25069,46.1904448 1360.74313,46.2622633 1360.21923,46.2622633 C1359.84896,46.2622633 1359.48914,46.2252659 1359.13847,46.1566281 C1359.86953,48.4968419 1361.9909,50.1997288 1364.50475,50.247273 C1362.53863,51.8272815 1360.06185,52.7689585 1357.37039,52.7689585 C1356.90673,52.7689585 1356.44945,52.7410012 1356,52.6865932 C1358.54225,54.3580071 1361.5617,55.3333333 1364.80579,55.3333333 C1375.37199,55.3333333 1381.15001,46.3576866 1381.15001,38.5733241 C1381.15001,38.318025 1381.14446,38.0638977 1381.13336,37.8111098 C1382.25608,36.9807599 1383.22975,35.9434922 1384,34.7620852 L1384,34.7620852 L1384,34.7620852 Z" id="path5-2-copy" sketch:type="MSShapeGroup"></path>
        </g>
    </g>
</svg>